<svg xmlns="http://www.w3.org/2000/svg"
shape-rendering="geometricPrecision"
width="4000" height="4000" viewBox="0 0 481 481">
  <metadata>null</metadata>

<path d="
M 21.472 428.557
C 26.586 416.364 32.281 404.378 37.746 392.334
C 40.301 386.701 42.429 380.626 45.373 375.206
C 48.829 375.158 52.401 375.473 55.842 375.098
C 56.534 376.034 56.855 377.238 57.371 378.278
C 59.037 381.64 60.531 385.076 62.093 388.485
C 66.129 397.29 70.037 406.16 73.987 415
C 75.556 418.509 77.113 422.028 78.705 425.528
C 79.203 426.621 80.544 428.235 80.512 429.395
C 77.745 429.1 74.817 429.312 72.032 429.311
C 71.155 429.311 69.955 429.612 69.144 429.319
C 67.739 425.609 66.058 421.989 64.599 418.317
C 59.071 418.171 53.529 418.225 47.998 418.232
C 45.477 418.235 42.511 418.706 40.06 418.123
C 40.853 415.422 42.255 412.419 43.572 409.934
C 47.862 410.04 52.142 410.081 56.435 410.07
C 57.372 410.068 60.27 410.489 61.011 410.023
C 58.699 404.914 56.446 399.78 54.258 394.606
C 53.396 392.567 52.498 390.555 51.686 388.497
C 51.48 387.976 50.839 386.385 50.488 386.676
C 44.718 401.087 37.016 414.712 31.776 429.352
C 29.782 429.647 27.531 429.271 25.501 429.305
C 24.178 429.327 22.48 429.631 21.22 429.213
C 21.304 428.994 21.388 428.775 21.472 428.557 Z"
opacity="1" fill="rgb(0,1,1)" fill-rule="evenodd" />
<path d="
M 147.502 190.225
C 143.772 191.448 139.342 191.76 135.443 192.265
C 134.366 191.157 131.205 191.885 129.843 192.037
C 123.862 192.706 118.968 194.882 113.305 196.759
C 88.797 204.883 69.491 223.139 54.695 243.727
C 49.96 250.317 45.426 257.327 40.138 263.485
C 37.924 266.061 35.513 268.375 33.152 270.802
C 32.812 271.151 31.361 273.505 32.868 273.333
C 31.929 274.341 30.982 275.233 29.834 276
C 29.453 276.254 28.682 276.699 28.664 277.234
C 28.647 277.762 29.123 278.329 29.009 278.798
C 27.592 278.865 26.169 279.019 24.753 279.033
C 24.812 278.128 26.076 276.991 26.61 276.269
C 27.814 274.64 28.936 272.888 30.022 271.176
C 34.176 264.623 37.8 257.719 41.758 251.046
C 46.973 242.252 51.616 233.02 58.023 224.996
C 70.51 209.356 87.946 197.511 107.56 193.003
C 113.979 191.527 120.697 190.509 127.276 190.218
C 134.018 189.92 140.769 190.466 147.502 190.225 Z"
opacity="1" fill="rgb(101,47,143)" fill-rule="evenodd" />
<path d="
M 32.868 273.333
C 42.901 265.039 49.66 254.188 57.224 243.747
C 59.76 240.246 62.222 236.407 65.22 233.285
C 65.201 233.432 65.866 234.771 66.039 234.66
C 66.356 234.456 66.421 233.49 66.603 233.156
C 66.873 232.66 67.398 232.257 67.797 231.869
C 70.488 229.257 73.47 226.81 76.449 224.538
C 84.434 218.447 93.983 214.591 103.596 211.907
C 114.914 208.746 126.933 209.506 138.55 209.149
C 154.447 208.66 171.508 205.596 183.064 193.729
C 188.711 187.93 192.154 180.162 194.315 172.447
C 196.62 164.216 197.98 155.911 198.985 147.427
C 199.706 141.348 199.907 135.147 200.918 129.111
C 202.043 122.393 202.779 115.682 204.382 109.038
C 209.869 86.294 220.391 64.094 239.729 49.965
C 244.823 46.243 250.398 43.183 256.219 40.764
C 257.97 40.037 258.834 40.873 260.472 40.997
C 261.074 41.042 261.86 40.511 262.452 40.365
C 260.689 41.575 258.461 42.121 256.605 43.196
C 253.272 45.128 250.32 47.538 247.416 50.049
C 232.229 63.186 225.497 82.528 223.275 101.938
C 223.192 102.774 223.169 103.653 222.939 104.463
C 222.266 106.677 221.463 108.589 221.197 110.931
C 219.813 112.772 219.919 116.678 219.559 118.93
C 218.689 124.374 217.848 129.781 217.076 135.248
C 214.181 155.743 214.598 177.865 203.522 196.169
C 196.894 207.124 187.107 213.696 175.313 218.11
C 171.064 219.7 166.635 220.807 162.154 221.482
C 161.142 221.635 157.795 221.422 158.979 222.912
C 149.365 223.55 139.63 222.728 129.99 223.406
C 115.392 224.433 101.458 229.628 91.173 240.319
C 83.971 247.807 78.456 257.355 73.417 266.382
C 71.768 269.336 69.978 272.212 68.312 275.158
C 67.684 276.269 67.014 278.205 65.948 278.933
C 53.651 279.076 41.319 278.78 29.009 278.798
C 29.123 278.329 28.647 277.762 28.664 277.234
C 28.682 276.699 29.453 276.254 29.834 276
C 30.982 275.233 31.929 274.341 32.868 273.333 Z"
opacity="1" fill="rgb(128,54,149)" fill-rule="evenodd" />
<path d="
M 135.443 192.265
C 118.277 195.44 99.952 202.341 85.997 213.02
C 78.383 218.847 71.393 225.971 65.22 233.285
C 62.222 236.407 59.76 240.246 57.224 243.747
C 49.66 254.188 42.901 265.039 32.868 273.333
C 31.361 273.505 32.812 271.151 33.152 270.802
C 35.513 268.375 37.924 266.061 40.138 263.485
C 45.426 257.327 49.96 250.317 54.695 243.727
C 69.491 223.139 88.797 204.883 113.305 196.759
C 118.968 194.882 123.862 192.706 129.843 192.037
C 131.205 191.885 134.366 191.157 135.443 192.265 Z"
opacity="1" fill="rgb(140,84,179)" fill-rule="evenodd" />
<path d="
M 135.443 192.265
C 139.342 191.76 143.772 191.448 147.502 190.225
C 159.302 189.82 172.437 191.033 181.829 182.431
C 190.869 174.152 190.374 161.76 190.399 150.563
C 190.446 128.413 191.194 106.184 190.699 84.042
C 178.288 93.104 169.11 105.653 160.72 118.312
C 153.231 129.61 145.996 141.163 139.057 152.808
C 135.738 158.378 132.311 163.883 128.932 169.417
C 127.436 171.866 126.063 175.121 124.074 177.178
C 122.732 177.58 121.032 177.344 119.631 177.425
C 116.87 177.583 114.129 177.944 111.391 178.308
C 104.636 179.204 98.084 181.336 91.902 184.145
C 87.978 185.928 83.957 187.954 80.524 190.58
C 79.509 191.357 78.542 192.184 77.599 193.046
C 77.327 193.295 76.742 194.027 76.347 194.019
C 75.792 194.009 76.873 192.247 76.95 192.139
C 78.237 190.315 79.325 188.368 80.485 186.459
C 83.576 181.373 86.708 176.313 89.784 171.217
C 98.858 156.187 107.596 140.96 116.997 126.128
C 129.892 105.785 142.5 84.501 160.499 68.145
C 182.684 47.985 211.849 37.278 241.747 37.2
C 248.666 37.182 255.59 37.346 262.507 37.258
C 265.135 37.224 269.384 36.349 271.821 37.375
C 271.84 37.85 270.058 37.997 269.727 38.051
C 267.165 38.47 264.914 39.626 262.452 40.365
C 261.86 40.511 261.074 41.042 260.472 40.997
C 258.834 40.873 257.97 40.037 256.219 40.764
C 250.398 43.183 244.823 46.243 239.729 49.965
C 220.391 64.094 209.869 86.294 204.382 109.038
C 202.779 115.682 202.043 122.393 200.918 129.111
C 199.907 135.147 199.706 141.348 198.985 147.427
C 197.98 155.911 196.62 164.216 194.315 172.447
C 192.154 180.162 188.711 187.93 183.064 193.729
C 171.508 205.596 154.447 208.66 138.55 209.149
C 126.933 209.506 114.914 208.746 103.596 211.907
C 93.983 214.591 84.434 218.447 76.449 224.538
C 73.47 226.81 70.488 229.257 67.797 231.869
C 67.398 232.257 66.873 232.66 66.603 233.156
C 66.421 233.49 66.356 234.456 66.039 234.66
C 65.866 234.771 65.201 233.432 65.22 233.285
C 71.393 225.971 78.383 218.847 85.997 213.02
C 99.952 202.341 118.277 195.44 135.443 192.265 Z"
opacity="1" fill="rgb(106,30,115)" fill-rule="evenodd" />
<path d="
M 81.899 429.211
C 86.027 421.847 91.834 415.325 96.622 408.373
C 98.092 406.238 100.437 403.926 101.38 401.519
C 100.166 398.903 97.839 396.442 96.2 394.057
C 91.811 387.671 87.001 381.515 82.852 374.975
C 85.656 374.518 88.854 374.878 91.709 374.871
C 92.557 374.869 94.165 374.539 94.873 374.966
C 95.938 377.198 97.812 379.203 99.224 381.241
C 102.307 385.692 105.438 390.152 108.167 394.826
C 108.672 394.661 108.936 393.696 109.22 393.295
C 110.011 392.175 110.826 391.069 111.608 389.94
C 114.964 385.098 118.133 380.121 121.503 375.294
C 122.57 374.924 123.887 375.158 125.009 375.175
C 127.417 375.212 130.748 374.608 133.018 375.369
C 132.212 376.843 130.956 378.132 129.984 379.514
C 128.02 382.306 126.16 385.168 124.167 387.942
C 120.98 392.375 118.266 397.271 114.697 401.412
C 115.263 403.389 117.476 405.477 118.658 407.197
C 122.202 412.353 125.747 417.501 129.356 422.611
C 130.57 424.329 131.807 426.044 132.969 427.798
C 133.152 428.074 134.314 429.382 134.266 429.607
C 130.387 429.578 126.465 429.34 122.561 429.459
C 120.749 428.131 119.409 425.078 118.089 423.24
C 114.618 418.407 111.439 413.366 107.949 408.548
C 106.492 409.989 105.491 411.907 104.326 413.586
C 101.986 416.959 99.629 420.32 97.317 423.711
C 96.394 425.065 95.354 426.368 94.497 427.762
C 94.178 428.282 93.878 429.077 93.299 429.333
C 89.598 429.472 85.719 428.892 82.047 429.46
C 81.997 429.377 81.948 429.294 81.899 429.211 Z"
opacity="1" fill="rgb(1,1,1)" fill-rule="evenodd" />
<path d="
M 142.395 375.282
C 145.669 375.128 148.96 375.294 152.237 375.163
C 152.626 376.622 152.259 378.483 152.27 379.997
C 152.298 383.663 152.301 387.33 152.327 390.996
C 152.418 403.792 152.086 416.627 152.381 429.415
C 149.123 429.315 145.856 429.358 142.597 429.388
C 142.169 423.961 142.443 418.448 142.443 413
C 142.443 400.447 142.774 387.826 142.395 375.282 Z"
opacity="1" fill="rgb(0,1,0)" fill-rule="evenodd" />
<path d="
M 221.197 110.931
C 221.17 111.903 221.713 112.661 221.74 113.615
C 221.873 118.352 220.393 123.403 219.672 128.065
C 218.677 134.508 218.29 141.044 217.382 147.493
C 216.472 153.964 216.183 160.52 215.251 167.004
C 213.551 178.832 209.812 191.206 202.771 200.989
C 196.627 209.527 188.496 214.425 179.181 218.87
C 176.671 220.067 173.536 220.911 170.818 221.486
C 169.554 221.754 167.946 221.496 167.48 222.93
C 164.647 222.905 161.811 222.973 158.979 222.912
C 157.795 221.422 161.142 221.635 162.154 221.482
C 166.635 220.807 171.064 219.7 175.313 218.11
C 187.107 213.696 196.894 207.124 203.522 196.169
C 214.598 177.865 214.181 155.743 217.076 135.248
C 217.848 129.781 218.689 124.374 219.559 118.93
C 219.919 116.678 219.813 112.772 221.197 110.931 Z"
opacity="1" fill="rgb(183,96,190)" fill-rule="evenodd" />
<path d="
M 163.421 398.104
C 163.821 394.82 164.915 391.662 166.419 388.731
C 177.354 367.422 211.547 370.178 219.01 392.887
C 220.46 397.3 220.79 401.87 220.182 406.464
C 219.764 409.616 218.709 412.794 217.241 415.612
C 206.605 436.029 174.446 434.931 165.289 413.847
C 163.159 408.943 162.783 403.354 163.421 398.104 Z
M 173.452 399.097
C 172.339 406.829 175.605 415.138 182.604 419.006
C 193.896 425.246 208.308 418.176 210.022 405.416
C 210.843 399.295 209.033 392.009 204.211 387.847
C 193.222 378.361 175.542 384.58 173.452 399.097 Z"
opacity="1" fill="rgb(0,1,1)" fill-rule="evenodd" />
<path d="
M 221.197 110.931
C 221.463 108.589 222.266 106.677 222.939 104.463
C 223.169 103.653 223.192 102.774 223.275 101.938
C 223.762 103.153 223.179 105.063 223.104 106.34
C 222.935 109.202 222.777 112.144 222.989 115.003
C 223.357 119.968 223.069 125.011 223.077 129.992
C 223.091 139.66 223.112 149.329 223.131 158.997
C 223.192 190.498 223.166 222 223.181 253.501
C 223.187 265.667 223.192 277.834 223.183 290
C 223.177 297.151 222.566 304.695 223.866 311.755
C 224.406 314.69 225.274 317.432 226.651 320.085
C 227.155 321.054 228.452 322.183 228.742 323.159
C 222.831 322.856 216.738 319.731 211.994 316.411
C 209.056 314.355 206.532 311.941 204.191 309.233
C 188.217 290.749 190.59 265.231 190.645 242.508
C 190.661 236.092 190.768 229.636 190.627 223.228
C 182.909 223.109 175.191 223.107 167.48 222.93
C 167.946 221.496 169.554 221.754 170.818 221.486
C 173.536 220.911 176.671 220.067 179.181 218.87
C 188.496 214.425 196.627 209.527 202.771 200.989
C 209.812 191.206 213.551 178.832 215.251 167.004
C 216.183 160.52 216.472 153.964 217.382 147.493
C 218.29 141.044 218.677 134.508 219.672 128.065
C 220.393 123.403 221.873 118.352 221.74 113.615
C 221.713 112.661 221.17 111.903 221.197 110.931 Z"
opacity="1" fill="rgb(83,28,104)" fill-rule="evenodd" />
<path d="
M 230.676 375.19
C 232.797 375.049 234.921 375.087 237.045 375.078
C 237.909 375.074 238.996 374.82 239.793 375.136
C 242.441 379.392 246.194 383.241 249.283 387.201
C 255.681 395.404 261.924 403.734 268.335 411.924
C 268.69 411.693 268.264 409.862 268.265 409.458
C 268.272 407.308 268.313 405.154 268.319 403.002
C 268.346 393.862 269.037 384.441 268.232 375.333
C 271.208 374.427 275.153 375.119 278.259 375.117
C 279.155 378.845 278.395 383.664 278.398 387.507
C 278.404 396.174 278.418 404.841 278.433 413.507
C 278.44 417.174 278.433 420.841 278.453 424.508
C 278.461 425.993 278.912 428.055 278.455 429.453
C 276.422 429.383 274.386 429.29 272.351 429.292
C 271.527 429.292 270.509 429.608 269.773 429.195
C 262.631 420.146 255.601 410.986 248.481 401.914
C 245.902 398.627 243.527 395.073 240.792 391.926
C 241.234 404.311 241.267 417.022 240.869 429.412
C 237.609 429.219 234.184 429.177 230.931 429.487
C 230.56 427.418 230.846 425.104 230.855 423.002
C 230.872 419.169 230.865 415.335 230.857 411.502
C 230.832 399.398 230.725 387.294 230.676 375.19 Z"
opacity="1" fill="rgb(0,1,0)" fill-rule="evenodd" />
<path d="
M 239.509 319.795
C 239.633 320.671 240.476 320.772 241.195 321.097
C 242.752 320.905 243.856 319.968 244.911 318.87
C 246.836 317.749 248.301 315.766 249.686 314.059
C 252.867 310.139 255.337 305.645 257.258 300.986
C 264.8 282.691 264.703 262.369 262.671 243.001
C 258.729 205.422 246.174 167.218 252.778 129.224
C 259.919 88.14 294.16 54.092 335.705 48.247
C 341.172 47.478 346.977 46.614 352.513 46.933
C 361.685 47.462 369.957 49.313 378.596 52.379
C 384.563 55.489 389.956 60.627 394.45 65.566
C 395.957 67.223 397.187 69.637 398.856 71.058
C 399.265 72.816 400.424 74.49 401.179 76.128
C 402.713 79.46 404.197 82.771 405.525 86.192
C 408.806 94.648 410.142 104.696 409.762 113.742
C 409.069 130.278 402.495 147.731 390.512 159.453
C 379.484 170.24 364.84 176.521 349.899 179.649
C 341.177 181.475 332.306 182.368 323.61 184.331
C 310.402 187.314 296.635 193.909 288.55 205.147
C 286.86 207.495 284.614 210.033 283.584 212.757
C 282.099 214.303 281.14 217.198 280.339 219.174
C 277.97 225.023 275.961 231.584 276.173 237.958
C 275.884 239.344 276.359 241.152 276.039 242.377
C 275.942 242.749 275.684 243.059 275.73 243.475
C 275.808 244.197 276.472 244.163 276.359 244.976
C 274.631 254.429 275.916 264.006 275.176 273.52
C 273.943 289.356 268.029 304.841 255.42 315.041
C 251.76 318.001 247.324 320.552 242.818 321.955
C 241.362 322.408 239.8 323.127 238.257 323.092
C 238.012 322.373 239.034 320.461 239.509 319.795 Z
M 275.43 122.121
C 275.035 130.21 275.424 138.405 275.532 146.495
C 275.68 157.492 275.564 168.496 275.573 179.494
C 275.578 186.594 276.191 193.952 275.43 200.999
C 276.13 200.829 276.968 197.687 277.335 196.94
C 278.907 193.737 281.606 190.766 284.219 188.376
C 291.959 181.299 301.929 177.621 312.283 176.747
C 320.216 176.077 328.19 176.921 336.11 176.259
C 342.255 175.745 348.293 174.074 353.889 171.5
C 359.923 168.725 365.493 164.725 369.998 159.834
C 375.213 154.172 379.202 147.627 381.557 140.277
C 388.974 117.129 379.482 90.359 358.55 77.674
C 354.044 74.944 349.264 72.772 344.122 71.55
C 338.47 70.208 332.878 69.318 327.045 69.69
C 319.12 70.195 311.526 72.301 304.509 76.024
C 297.398 79.797 290.828 85.262 286.19 91.893
C 282.335 97.405 279.171 103.558 277.421 110.085
C 276.346 114.091 276.083 118.069 275.43 122.121 Z"
opacity="1" fill="rgb(132,31,118)" fill-rule="evenodd" />
<path d="
M 367.552 45.88
C 366.074 47.82 364.79 46.287 363.005 45.871
C 361.4 45.496 359.653 45.266 358.008 45.4
C 347.565 46.255 337.386 45.638 327.035 48.069
C 301.259 54.122 276.405 71.746 263.354 95.002
C 259.946 101.073 256.902 107.333 254.716 113.959
C 249.92 128.5 249.154 143.718 249.625 158.889
C 250.777 195.922 262.794 232.004 261.641 269.164
C 261.262 281.392 258.681 293.755 253.293 304.769
C 251.854 307.712 250.076 310.457 248.116 313.075
C 247.088 314.448 245.611 315.739 244.934 317.32
C 244.866 317.579 244.52 318.792 244.911 318.87
C 243.856 319.968 242.752 320.905 241.195 321.097
C 240.476 320.772 239.633 320.671 239.509 319.795
C 242.148 309.981 242.243 300.619 242.241 290.502
C 242.239 282.335 242.258 274.168 242.263 266.001
C 242.284 231.5 242.29 197 242.328 162.5
C 242.338 153.046 242.322 143.593 242.323 134.139
C 242.324 123.607 242.445 113.162 245.06 102.889
C 254.353 66.378 286.806 39.353 324.499 37.451
C 339.581 36.689 353.734 40.161 367.552 45.88 Z"
opacity="1" fill="rgb(157,57,156)" fill-rule="evenodd" />
<path d="
M 367.552 45.88
C 371.233 47.581 375.857 49.303 378.596 52.379
C 369.957 49.313 361.685 47.462 352.513 46.933
C 346.977 46.614 341.172 47.478 335.705 48.247
C 294.16 54.092 259.919 88.14 252.778 129.224
C 246.174 167.218 258.729 205.422 262.671 243.001
C 264.703 262.369 264.8 282.691 257.258 300.986
C 255.337 305.645 252.867 310.139 249.686 314.059
C 248.301 315.766 246.836 317.749 244.911 318.87
C 244.52 318.792 244.866 317.579 244.934 317.32
C 245.611 315.739 247.088 314.448 248.116 313.075
C 250.076 310.457 251.854 307.712 253.293 304.769
C 258.681 293.755 261.262 281.392 261.641 269.164
C 262.794 232.004 250.777 195.922 249.625 158.889
C 249.154 143.718 249.92 128.5 254.716 113.959
C 256.902 107.333 259.946 101.073 263.354 95.002
C 276.405 71.746 301.259 54.122 327.035 48.069
C 337.386 45.638 347.565 46.255 358.008 45.4
C 359.653 45.266 361.4 45.496 363.005 45.871
C 364.79 46.287 366.074 47.82 367.552 45.88 Z"
opacity="1" fill="rgb(192,94,192)" fill-rule="evenodd" />
<path d="
M 276.173 237.958
C 278.296 237.588 277.799 235.768 278.588 234.119
C 280.353 230.429 281.916 226.635 283.718 222.961
C 288.429 213.354 296.641 205.066 306.533 200.903
C 330.303 190.9 356.36 207.275 379.91 196.324
C 376.941 199.039 372.635 200.686 368.991 202.277
C 356.259 207.834 343.209 209.593 329.428 209.673
C 320.085 209.727 310.234 208.766 301.472 212.695
C 291.845 217.011 284.457 225.06 279.96 234.48
C 278.941 236.614 278.111 238.814 277.401 241.065
C 276.998 242.342 276.941 243.761 276.359 244.976
C 276.472 244.163 275.808 244.197 275.73 243.475
C 275.684 243.059 275.942 242.749 276.039 242.377
C 276.359 241.152 275.884 239.344 276.173 237.958 Z"
opacity="1" fill="rgb(105,29,102)" fill-rule="evenodd" />
<path d="
M 283.584 212.757
C 284.02 214.494 285.691 211.693 285.953 211.276
C 287.96 208.085 290.239 205.084 292.878 202.386
C 299.232 195.89 308.3 190.583 317.054 188.088
C 328.831 184.73 340.976 183.792 352.86 181.019
C 372.414 176.455 390.052 166.248 401.051 149.112
C 406.565 140.522 409.783 130.204 411.222 120.158
C 411.813 116.026 411.678 111.845 411.847 107.689
C 412.029 103.187 411.712 98.608 410.034 94.38
C 409.542 93.139 409.252 91.826 408.829 90.563
C 408.647 90.02 408.014 89.565 407.988 88.991
C 407.949 88.12 408.565 87.259 409.384 88.04
C 413.313 97.337 416.26 106.908 417.102 117.034
C 419.055 140.508 411.657 163.573 396.496 181.491
C 393.987 184.457 391.157 187.011 388.277 189.597
C 385.674 191.935 382.991 194.615 379.91 196.324
C 356.36 207.275 330.303 190.9 306.533 200.903
C 296.641 205.066 288.429 213.354 283.718 222.961
C 281.916 226.635 280.353 230.429 278.588 234.119
C 277.799 235.768 278.296 237.588 276.173 237.958
C 275.961 231.584 277.97 225.023 280.339 219.174
C 281.14 217.198 282.099 214.303 283.584 212.757 Z"
opacity="1" fill="rgb(181,63,164)" fill-rule="evenodd" />
<path d="
M 398.856 71.058
C 400.626 72.356 401.704 74.457 402.858 76.276
C 405.265 80.07 407.651 83.876 409.384 88.04
C 408.565 87.259 407.949 88.12 407.988 88.991
C 408.014 89.565 408.647 90.02 408.829 90.563
C 409.252 91.826 409.542 93.139 410.034 94.38
C 411.712 98.608 412.029 103.187 411.847 107.689
C 411.678 111.845 411.813 116.026 411.222 120.158
C 409.783 130.204 406.565 140.522 401.051 149.112
C 390.052 166.248 372.414 176.455 352.86 181.019
C 340.976 183.792 328.831 184.73 317.054 188.088
C 308.3 190.583 299.232 195.89 292.878 202.386
C 290.239 205.084 287.96 208.085 285.953 211.276
C 285.691 211.693 284.02 214.494 283.584 212.757
C 284.614 210.033 286.86 207.495 288.55 205.147
C 296.635 193.909 310.402 187.314 323.61 184.331
C 332.306 182.368 341.177 181.475 349.899 179.649
C 364.84 176.521 379.484 170.24 390.512 159.453
C 402.495 147.731 409.069 130.278 409.762 113.742
C 410.142 104.696 408.806 94.648 405.525 86.192
C 404.197 82.771 402.713 79.46 401.179 76.128
C 400.424 74.49 399.265 72.816 398.856 71.058 Z"
opacity="1" fill="rgb(208,100,195)" fill-rule="evenodd" />
<path d="
M 311.755 385.836
C 312.872 385.854 316.559 385.212 317.323 385.975
C 317.385 388.682 317.96 391.816 317.498 394.482
C 318.738 393.713 319.563 391.697 320.69 390.646
C 324.189 387.384 328.34 385.536 333.092 385.089
C 336.269 384.79 339.364 385.121 342.409 386.067
C 358.87 391.181 362.059 414.488 349.557 425.361
C 347.152 427.453 343.954 428.768 340.903 429.557
C 338.206 430.255 335.323 430.487 332.555 430.117
C 328.335 429.552 324.113 427.66 321.017 424.734
C 319.824 423.607 318.945 421.201 317.576 420.44
C 318.476 428.29 317.974 436.525 317.859 444.42
C 315.836 444.32 313.777 444.458 311.762 444.608
C 311.997 432.414 311.81 420.199 311.824 408.001
C 311.833 400.664 312.346 393.153 311.755 385.836 Z
M 317.937 405.108
C 317.236 411.906 320.433 419.657 326.633 423.009
C 337.429 428.845 350.336 421.389 351.391 409.451
C 351.894 403.751 349.846 397.486 345.291 393.812
C 335.17 385.651 319.272 392.157 317.937 405.108 Z"
opacity="1" fill="rgb(87,32,117)" fill-rule="evenodd" />
<path d="
M 365.003 417.12
C 365.137 415.408 365.312 413.874 365.961 412.267
C 369.592 403.274 380.574 403.411 388.684 403.554
C 390.881 403.593 393.077 403.728 395.273 403.807
C 395.868 403.829 397.18 404.149 397.713 403.83
C 397.189 400.504 398.008 397.624 395.988 394.581
C 394.157 391.822 390.386 390.619 387.242 390.438
C 381.142 390.087 375.608 391.786 370.371 394.804
C 369.404 393.782 368.321 391.28 368.134 389.9
C 377.244 384.646 393.248 381.441 400.74 391.234
C 403.939 395.416 403.926 400.487 403.916 405.503
C 403.906 410.334 403.893 415.165 403.818 419.995
C 403.782 422.282 403.735 424.577 403.782 426.865
C 403.799 427.675 404.094 428.915 403.876 429.676
C 402.068 429.714 400.05 429.374 398.271 429.672
C 397.842 428.234 398.099 426.166 398.085 424.641
C 398.08 424.157 398.438 422.946 397.744 423.387
C 389.272 433.795 366.148 433.188 365.003 417.12 Z
M 371.377 415.066
C 369.707 424.955 382.164 427.03 389.166 424.373
C 392.56 423.085 396.161 420.52 397.198 416.84
C 397.936 414.22 397.738 411.244 397.763 408.553
C 397.378 408.203 396.519 408.336 396.009 408.32
C 394.172 408.262 392.335 408.227 390.498 408.218
C 383.616 408.182 374.214 407.176 371.377 415.066 Z"
opacity="1" fill="rgb(102,29,116)" fill-rule="evenodd" />
<path d="
M 413.938 405.616
C 414.76 400.306 416.424 395.113 420.28 391.147
C 426.891 384.349 438.225 383.037 446.46 387.553
C 449.149 389.028 451.066 391.261 452.974 393.597
C 453.204 392.781 452.922 391.912 452.892 391.082
C 452.826 389.228 452.854 387.361 452.839 385.504
C 452.79 379.45 453.06 373.366 452.848 367.316
C 453.175 366.801 453.647 367.084 454.196 367.073
C 455.757 367.042 457.331 366.963 458.89 366.974
C 459.064 381.63 459.326 396.326 459.183 410.994
C 459.141 415.327 459.104 419.661 459.073 423.995
C 459.062 425.652 458.465 428.209 459.135 429.733
C 457.743 429.605 454.45 430.357 453.408 429.538
C 453.448 426.953 453.411 424.31 453.135 421.74
C 451.148 424.259 449.127 426.513 446.229 428.019
C 437.821 432.389 426.515 430.514 420.005 423.616
C 415.531 418.875 413.415 412.074 413.938 405.616 Z
M 420.405 404.586
C 419.543 409.793 420.852 415.504 424.369 419.493
C 431.494 427.577 444.552 426.429 450.378 417.595
C 451.771 415.483 452.655 412.928 453.052 410.438
C 454.883 398.982 445.227 388.317 433.491 390.378
C 431.577 390.714 429.732 391.47 428.093 392.508
C 426.099 393.77 424.478 395.454 423.148 397.393
C 421.69 399.52 420.824 402.054 420.405 404.586 Z"
opacity="1" fill="rgb(129,29,121)" fill-rule="evenodd" />

</svg>